PathFileType	4	(X/Y/Z)	C:/Users/dbak576/Desktop/Duncan Bakke Modelling Files/H24s1/Static_H24s1.trc	
DataRate	CameraRate	NumFrames	NumMarkers	Units	OrigDataRate	OrigDataStartFrame	OrigNumFrames	
200.00	200.00	6	61	mm	200.00	13	32	
Frame#	Time	LFHD			RFHD			LBHD			RBHD			C7			T10			CLAV			STRN			RBack			LASI			RASI			LPSI			RPSI			RACR1			RUA1			RElbow			RElbowM			RFA1			RWRR			RWRU			RCAR			LACR1			LUA1			LElbow			LElbowM			LFA1			LWRR			LWRU			LCAR			RTH1			RTH3			RTH2			RTH4			RLFC			RMFC			RTB1			RTB2			RTB4			RLMAL			RMMAL			RCAL			RMT1			RMT5			RToe			LTH1			LTH3			LTH2			LTH4			LLFC			LMFC			LTB1			LTB3			LTB2			LTB4			LLMAL			LMMAL			LCAL			LMT1			LMT5			LToe			RTB3			
		X1	Y1	Z1	X2	Y2	Z2	X3	Y3	Z3	X4	Y4	Z4	X5	Y5	Z5	X6	Y6	Z6	X7	Y7	Z7	X8	Y8	Z8	X9	Y9	Z9	X10	Y10	Z10	X11	Y11	Z11	X12	Y12	Z12	X13	Y13	Z13	X14	Y14	Z14	X15	Y15	Z15	X16	Y16	Z16	X17	Y17	Z17	X18	Y18	Z18	X19	Y19	Z19	X20	Y20	Z20	X21	Y21	Z21	X22	Y22	Z22	X23	Y23	Z23	X24	Y24	Z24	X25	Y25	Z25	X26	Y26	Z26	X27	Y27	Z27	X28	Y28	Z28	X29	Y29	Z29	X30	Y30	Z30	X31	Y31	Z31	X32	Y32	Z32	X33	Y33	Z33	X34	Y34	Z34	X35	Y35	Z35	X36	Y36	Z36	X37	Y37	Z37	X38	Y38	Z38	X39	Y39	Z39	X40	Y40	Z40	X41	Y41	Z41	X42	Y42	Z42	X43	Y43	Z43	X44	Y44	Z44	X45	Y45	Z45	X46	Y46	Z46	X47	Y47	Z47	X48	Y48	Z48	X49	Y49	Z49	X50	Y50	Z50	X51	Y51	Z51	X52	Y52	Z52	X53	Y53	Z53	X54	Y54	Z54	X55	Y55	Z55	X56	Y56	Z56	X57	Y57	Z57	X58	Y58	Z58	X59	Y59	Z59	X60	Y60	Z60	X61	Y61	Z61	

13	0.060	-62.94790	-241.61407	1701.47546	8.55543	-232.94525	1704.86890	-84.50953	-425.60172	1670.25708	56.71660	-408.78983	1681.55627	-1.28319	-454.23712	1527.71387	4.00368	-523.38953	1289.28064	-15.19450	-308.45819	1462.50012	-19.91300	-241.22325	1299.87695	119.03671	-517.02014	1435.31042	-143.89561	-307.01736	1051.03333	140.30423	-290.79550	1057.29321	-23.17673	-519.63318	1041.34741	55.55222	-511.42087	1044.28125	124.20133	-388.47079	1520.75610	299.54376	-404.38394	1472.88330	439.43039	-382.16360	1411.17993	412.17493	-328.08670	1365.48682	582.39508	-333.10919	1401.26697	680.72302	-233.41823	1473.57690	702.29791	-240.94945	1400.60095	739.48212	-255.03156	1450.94250	-138.40466	-418.10544	1527.28552	-306.10245	-469.75244	1473.85156	-447.08029	-464.92084	1415.82678	-426.24316	-413.10574	1367.91223	-593.98199	-439.02597	1398.12097	-714.52051	-358.08463	1472.57849	-717.99493	-364.02231	1394.36621	-780.27899	-369.83997	1439.69104	212.67548	-352.46207	809.38684	207.24072	-379.80685	619.99927	172.57770	-301.58688	704.09442	213.99611	-362.39920	714.37592	211.72192	-395.45547	507.99356	78.86680	-399.84436	507.77405	150.99280	-363.47943	372.35834	223.68375	-399.02707	285.30545	155.48386	-380.06088	281.17285	222.84070	-451.03815	75.37171	136.77673	-428.40723	91.24941	187.28352	-509.22308	34.91932	156.74803	-316.25662	39.09325	244.11542	-349.70438	24.26227	170.53076	-255.86301	27.10988	-199.58371	-385.18927	804.88507	-189.97493	-424.86426	622.81116	-167.46851	-341.35019	702.48444	-196.55263	-406.13022	713.14380	-189.76654	-454.13495	523.96588	-56.35401	-450.81479	515.31213	-125.74461	-423.78415	382.69730	-147.35399	-436.62762	198.36888	-206.08759	-449.44592	304.19629	-135.55052	-427.72592	294.85419	-201.01982	-484.88635	73.76365	-117.38316	-462.19937	87.77531	-165.85728	-542.01044	26.00261	-142.12135	-340.62857	39.26046	-229.31183	-378.26404	20.77106	-154.47916	-283.17892	25.99238	162.90074	-399.24799	190.41035 
14	0.065	-62.85297	-241.35947	1700.77307	8.50569	-232.93387	1704.84534	-84.52132	-425.56802	1670.24719	56.74936	-408.74805	1681.56470	-1.31989	-454.17664	1527.71924	4.01072	-523.37994	1289.27686	-15.15633	-308.37051	1462.43994	-19.95913	-241.16792	1299.85938	119.06105	-517.00458	1435.30750	-143.93022	-306.98688	1051.03442	140.26442	-290.80548	1057.28589	-23.18265	-519.62683	1041.37561	55.56442	-511.38397	1044.27148	124.25281	-388.42032	1520.92920	299.60565	-404.28482	1472.81287	439.51633	-382.12027	1411.13379	412.14328	-328.00504	1365.43701	582.39435	-333.02057	1401.28735	680.67188	-233.22906	1473.50574	702.26697	-240.93040	1400.60718	739.41217	-254.98746	1450.90613	-138.40634	-418.07224	1527.27222	-306.07776	-469.70807	1473.84131	-447.00558	-464.89853	1415.71924	-426.20090	-413.11841	1367.45044	-593.98279	-439.02823	1398.11694	-714.54297	-358.04221	1472.54504	-717.98553	-364.05075	1394.31396	-780.28162	-369.81677	1439.67358	212.67415	-352.42224	809.34973	207.24937	-379.79453	619.94952	172.55154	-301.54230	704.09082	213.99733	-362.39151	714.38153	211.72292	-395.45422	508.02197	78.93349	-399.78485	507.83020	150.98140	-363.48511	372.35718	223.67924	-399.03687	285.29669	155.44893	-380.05048	281.19586	222.61920	-451.16943	75.05784	136.76585	-428.39603	91.25320	187.24158	-509.26630	34.91321	156.76654	-316.26334	39.10421	244.16953	-349.76291	24.28313	170.53053	-255.86267	27.10982	-199.59148	-385.14282	804.87152	-189.79836	-424.76862	622.82330	-167.48341	-341.35754	702.47791	-196.51332	-406.02277	713.13605	-189.76987	-454.09409	523.83832	-56.37067	-450.80783	515.29529	-125.74385	-423.80609	382.69394	-147.33702	-436.60095	198.36720	-206.10260	-449.43347	304.17719	-135.53229	-427.72681	294.84161	-201.02962	-484.90646	73.73163	-117.28418	-462.15533	87.73902	-165.88148	-542.07111	26.01907	-142.14488	-340.52939	39.24295	-229.90855	-378.70911	21.24211	-154.47253	-283.20135	25.98720	162.96266	-399.46219	190.23616 
15	0.070	-62.01008	-241.23842	1700.16028	8.47148	-232.90347	1704.83252	-84.51822	-425.52524	1670.21423	56.75847	-408.68344	1681.56311	-1.31147	-454.14090	1527.73071	3.97036	-523.33044	1289.28479	-15.12552	-308.26331	1462.38086	-19.94851	-241.14771	1299.82227	119.06602	-516.92639	1435.30750	-143.90288	-306.95398	1051.02747	140.26711	-290.76392	1057.28418	-23.18353	-519.55640	1041.36890	55.55061	-511.33740	1044.26233	124.30749	-388.36288	1521.02563	299.70947	-404.17081	1472.76868	439.46048	-382.03131	1411.13171	412.12286	-327.94528	1365.42297	582.35986	-332.93967	1401.28589	680.63599	-233.13011	1473.48010	702.23627	-240.79659	1400.49414	739.44427	-254.91142	1450.86694	-138.50014	-418.08246	1527.41003	-306.08478	-469.64621	1473.86670	-446.95193	-464.87881	1415.68799	-426.23312	-413.13480	1367.74280	-593.99377	-438.99246	1398.07117	-714.52740	-358.03842	1472.49939	-717.97693	-364.06573	1394.28723	-780.27545	-369.77130	1439.61267	212.67142	-352.41824	809.32983	207.23936	-379.74701	619.99115	172.54282	-301.49860	704.08539	213.99663	-362.34830	714.35583	211.71999	-395.44839	508.00674	78.93863	-399.71133	507.85172	150.97887	-363.45856	372.36398	223.68181	-399.05374	285.29935	155.46614	-380.04712	281.17831	222.46869	-451.23404	74.88874	136.78079	-428.41791	91.24563	187.30194	-509.24274	34.94590	156.76532	-316.26270	39.09948	243.88318	-349.77737	24.37588	170.52950	-255.85448	27.12745	-199.59859	-385.12714	804.88684	-189.71835	-424.70035	622.83038	-167.47498	-341.30692	702.46796	-196.53491	-406.03967	713.16364	-189.74423	-454.07767	523.75574	-56.36249	-450.80832	515.30060	-125.73702	-423.83337	382.68344	-147.33968	-436.58026	198.35452	-206.09778	-449.35953	304.13992	-135.49455	-427.72916	294.83350	-200.98804	-484.88568	73.73460	-117.64351	-462.25180	87.99907	-165.91174	-542.23163	25.93803	-140.97661	-340.25949	39.04455	-229.56693	-378.57196	21.01151	-154.46040	-283.18512	25.96082	163.09137	-399.59595	190.08205 
16	0.075	-61.58296	-241.18115	1699.99817	8.54040	-232.86375	1704.87280	-84.49126	-425.50214	1670.17664	56.76351	-408.64172	1681.56226	-1.30212	-454.08734	1527.72034	3.99842	-523.27039	1289.26196	-15.12363	-308.24280	1462.39429	-19.95739	-241.13194	1299.81653	119.06358	-516.87897	1435.31104	-143.93445	-306.91916	1051.06470	140.26569	-290.69916	1057.28735	-23.20535	-519.52094	1041.37573	55.53495	-511.33096	1044.27234	124.33584	-388.33493	1521.03113	299.72781	-404.09390	1472.76978	439.43774	-381.96552	1411.11267	412.11655	-327.86304	1365.39807	582.38574	-332.90176	1401.24719	680.60596	-232.95677	1473.42004	702.24243	-240.72813	1400.46460	739.45331	-254.75224	1450.79590	-138.42332	-418.01804	1527.29138	-306.10489	-469.64011	1473.86768	-446.90768	-464.83386	1415.66736	-426.18250	-413.11258	1367.48486	-593.95575	-438.96967	1398.04089	-714.50586	-357.98535	1472.44421	-718.01111	-364.10229	1394.27100	-780.25446	-369.76627	1439.59119	212.63445	-352.41611	809.32489	207.23933	-379.72458	620.02258	172.54132	-301.48346	704.08105	214.01140	-362.32281	714.35547	211.71487	-395.45050	507.97552	78.94725	-399.64478	507.85101	150.94635	-363.45264	372.37656	223.65999	-399.00906	285.31299	155.50421	-380.04105	281.15988	222.44551	-451.21793	74.89786	136.87199	-428.30667	91.13119	187.36880	-509.24918	34.94876	156.74297	-316.25723	39.07984	243.98654	-349.69257	24.33452	170.54301	-255.88678	27.10742	-199.60185	-385.12949	804.89294	-189.71838	-424.68869	622.80444	-167.46964	-341.29443	702.47034	-196.56454	-406.06094	713.16339	-189.77977	-454.11765	523.77307	-56.35420	-450.81226	515.30450	-125.73432	-423.81656	382.68518	-147.20023	-436.45743	198.30457	-206.00020	-449.34094	304.18604	-135.49112	-427.75388	294.80838	-200.97818	-484.85675	73.70016	-117.54150	-462.31342	87.95538	-165.89923	-542.16516	25.96338	-141.47240	-340.47324	39.10043	-229.28726	-378.37961	20.73428	-154.47475	-283.29584	25.96609	163.10358	-399.65744	190.12529 
17	0.080	-61.60699	-241.13120	1700.03772	8.56886	-232.85066	1704.89783	-84.48212	-425.46970	1670.16931	56.74735	-408.59778	1681.55127	-1.31763	-454.07483	1527.72070	4.03358	-523.24200	1289.25208	-15.14043	-308.22586	1462.39172	-19.94503	-241.09172	1299.80811	119.10739	-516.80322	1435.30823	-143.98163	-306.89410	1051.05115	140.25374	-290.67395	1057.26111	-23.22473	-519.46179	1041.37451	55.52418	-511.33746	1044.27405	124.35902	-388.24545	1521.00110	299.72586	-404.04099	1472.75757	439.45709	-381.90961	1411.07410	412.11417	-327.80402	1365.38293	582.36200	-332.84149	1401.20947	680.55017	-232.75403	1473.33997	702.25574	-240.73845	1400.39392	739.53351	-254.94363	1451.24451	-138.36591	-417.96317	1527.24097	-306.12619	-469.60657	1473.85339	-446.89755	-464.81659	1415.61462	-426.18399	-413.07205	1367.75574	-593.87158	-438.93848	1397.94348	-714.47266	-357.93842	1472.37561	-718.02368	-364.13754	1394.28210	-780.26062	-369.76282	1439.54895	212.63303	-352.38281	809.33600	207.22018	-379.70737	620.02582	172.53822	-301.45493	704.08362	214.01833	-362.29303	714.33936	211.71156	-395.44635	507.98422	78.95063	-399.60565	507.81909	150.92638	-363.45416	372.38647	223.58392	-399.23224	285.34802	155.51056	-380.04913	281.15613	222.48351	-451.20227	74.92760	136.84210	-428.34921	91.19914	187.29861	-509.30957	34.90536	156.75429	-316.24863	39.07391	244.12381	-349.68787	24.28259	170.55325	-255.89026	27.10560	-199.59363	-385.09479	804.89038	-189.71698	-424.66101	622.80627	-167.48904	-341.30481	702.47748	-196.52153	-406.01157	713.12061	-189.80797	-454.16177	523.96729	-56.35566	-450.74741	515.30975	-125.72446	-423.76804	382.69104	-147.28699	-436.54025	198.34090	-206.00455	-449.33160	304.16284	-135.46799	-427.75195	294.80182	-201.01094	-484.85876	73.74114	-117.24331	-462.16312	87.76317	-165.91174	-542.11017	26.00590	-142.16458	-340.51035	39.24199	-229.25455	-378.33844	20.67306	-154.46677	-283.23303	25.97852	162.97110	-399.26968	190.37111 
18	0.085	-61.78839	-241.11774	1700.11621	8.63238	-232.82132	1704.89050	-84.52763	-425.45016	1670.25195	56.76382	-408.57886	1681.54504	-1.35538	-453.96793	1527.75977	4.03136	-523.19867	1289.25293	-15.14861	-308.19003	1462.39050	-19.94361	-241.08253	1299.79993	119.07625	-516.79053	1435.29407	-143.99245	-306.86624	1051.08142	140.25151	-290.67871	1057.23682	-23.22977	-519.44708	1041.36194	55.52064	-511.34680	1044.27551	124.38392	-388.19452	1520.99353	299.72971	-403.98621	1472.71143	439.42361	-381.86923	1411.02917	412.09573	-327.73724	1365.38306	582.32855	-332.75967	1401.15515	680.46130	-232.60188	1473.30310	702.27466	-240.76060	1400.42969	739.76898	-254.94264	1451.22229	-138.38995	-417.88068	1527.25671	-306.12878	-469.59921	1473.85120	-446.91931	-464.82510	1415.61633	-426.22229	-412.97006	1367.82813	-593.89111	-438.91013	1397.90430	-714.48456	-357.93024	1472.27930	-717.99713	-364.14273	1394.22791	-780.23975	-369.72919	1439.47070	212.61676	-352.35043	809.30688	207.20251	-379.70267	620.01520	172.53989	-301.45294	704.06555	214.01813	-362.28320	714.32764	211.71254	-395.44339	507.99408	78.95010	-399.60828	507.82950	150.92369	-363.45584	372.38873	223.57237	-399.32156	285.35532	155.50334	-380.05280	281.16025	222.75212	-451.16379	75.15476	136.86644	-428.36887	91.11145	187.29501	-509.31088	34.90316	156.77843	-316.25705	39.10814	244.13217	-349.69635	24.25967	170.56100	-255.89363	27.08370	-199.60681	-385.05804	804.89557	-189.72189	-424.64917	622.80109	-167.49138	-341.26309	702.47815	-196.55582	-406.01474	713.14594	-189.75508	-454.13666	524.00055	-56.33445	-450.71133	515.32062	-125.74516	-423.74658	382.66824	-147.33688	-436.59903	198.36060	-205.99802	-449.32159	304.19342	-135.50075	-427.74423	294.79272	-201.01926	-484.86819	73.73901	-117.56614	-462.21088	87.97926	-165.90237	-542.19952	25.92182	-141.06168	-340.19739	39.09855	-229.21404	-378.31854	20.75108	-154.48868	-283.19763	25.98640	162.96658	-399.49026	190.27818 
